<?xml version="1.0" encoding="utf-8"?>
<!-- Generator: Adobe Illustrator 19.2.1, SVG Export Plug-In . SVG Version: 6.00 Build 0)  -->
<svg version="1.1" id="Layer_1" xmlns="http://www.w3.org/2000/svg" xmlns:xlink="http://www.w3.org/1999/xlink" x="0px" y="0px"
	 viewBox="0 0 130 49.7" style="enable-background:new 0 0 130 49.7;" xml:space="preserve">
<style type="text/css">
	.st0{fill:#855914;}
	.st1{fill:#5A3B00;}
	.st2{fill:#6E2405;}
	.st3{fill:#231F20;}
</style>
<title>Logotipo Website Sabores da Romeira</title>
<path class="st0" d="M41.5,18.1c0-9.2-7.4-16.6-16.5-16.7c-9.2,0-16.6,7.4-16.7,16.5c0,8.9,6.9,16.2,15.8,16.7v-8.5
	c0-1.4-2.9-2.1-2.9-4.3l1.1-13.5c0.1-0.1,0.3-0.2,0.4-0.1c0,0,0.1,0.1,0.1,0.1L23,20.6c0.1,0.3,0.3,0.3,0.5,0l0.3-12.2
	c0.2-0.2,0.3-0.2,0.5,0c0.1,4.1,0.3,8.1,0.4,12.2c0.1,0.1,0.3,0.2,0.4,0.1c0,0,0.1-0.1,0.1-0.1l0.3-12.2c0.1-0.1,0.3-0.2,0.4-0.1
	c0,0,0.1,0.1,0.1,0.1l0.4,12.2c0,0.2,0.1,0.3,0.3,0.3c0.2,0,0.3-0.1,0.3-0.3l0.3-12.2c0.1-0.1,0.3-0.2,0.4-0.1c0,0,0.1,0.1,0.1,0.1
	l1,13.4c0,2.2-2.9,2.9-2.9,4.3v8.5C34.6,34.1,41.5,26.9,41.5,18.1z"/>
<path class="st1" d="M81.6,18.1c0-9.2-7.4-16.6-16.6-16.6c-9.2,0-16.6,7.4-16.6,16.6c0,9,7.2,16.4,16.2,16.6l0.2-4
	c0.2-1.3-2-1.3-2.1-3c0-5.6,0.7-11.1,2.1-16.5c0.6-2.5,2.7-5.2,2.5-0.5L67,25.4v4.7l-0.4,0.6l0.2,3.8C75.2,33.6,81.5,26.5,81.6,18.1
	z"/>
<path class="st2" d="M121.7,18.1c0-9.2-7.5-16.6-16.6-16.6S88.5,9,88.5,18.1c0,8.8,6.9,16.1,15.7,16.6l0.3-8.2
	c0.2-1.9-4.9-2.1-4.9-7.8s2.7-10.1,5.4-10.2s5.7,4.6,5.7,10.3s-4.5,5.2-4.9,7.7l0.2,8.2C114.8,34.2,121.7,26.9,121.7,18.1z"/>
<path class="st3" d="M13.7,42.3c-0.1-1.4-1.1-2.1-2.5-2.1c-1-0.1-2,0.6-2.1,1.7c0,0,0,0,0,0c0,1.3,1.3,1.5,2.6,1.8s2.7,0.7,2.7,2.2
	s-1.5,2.3-2.7,2.3s-3.3-0.8-3.3-2.8h0.4c-0.1,1.8,1.2,2.4,2.8,2.4c1.1,0.1,2.1-0.7,2.2-1.8c0,0,0,0,0,0c0-1.3-1.3-1.6-2.7-1.9
	S8.5,43.5,8.5,42s1.4-2.1,2.6-2.1s2.9,0.7,3,2.5h-0.4V42.3z"/>
<path class="st3" d="M21.9,40H25c1.8,0,2.4,1,2.4,2.1c0,0.9-0.6,1.6-1.5,1.7l0,0c1,0.1,1.8,1,1.7,2c0,1.5-1.1,2.2-2.7,2.2h-3V40z
	 M22.4,43.6H25c1.3,0,2-0.7,2-1.7s-0.9-1.6-2-1.6h-2.6V43.6L22.4,43.6z M22.4,47.6H25c1.4,0,2.2-0.6,2.2-1.8S26,44.1,25,44.1h-2.6
	C22.4,44.1,22.4,47.6,22.4,47.6z"/>
<path class="st3" d="M32.1,48.3c-2.3,0-3.7-1.9-3.7-4.2s1.4-4.2,3.7-4.2s3.7,1.9,3.7,4.2S34.4,48.3,32.1,48.3z M32.1,47.9
	c2,0,3.2-1.7,3.2-3.8s-1.2-3.8-3.2-3.8s-3.2,1.7-3.2,3.8S30.1,47.8,32.1,47.9L32.1,47.9z"/>
<path class="st3" d="M48.9,47.6V48h-5.2v-8h5.2v0.4h-4.8v3.2h4.5V44h-4.5v3.5L48.9,47.6L48.9,47.6z"/>
<path class="st3" d="M54.8,42.3c-0.1-1.4-1.1-2.1-2.5-2.1c-1-0.1-2,0.6-2.1,1.7c0,0,0,0,0,0c0,1.3,1.3,1.5,2.6,1.8s2.7,0.7,2.7,2.2
	s-1.5,2.3-2.7,2.3s-3.3-0.8-3.3-2.8H50c-0.1,1.8,1.2,2.4,2.8,2.4c1.1,0.1,2.1-0.7,2.2-1.8c0,0,0,0,0,0c0-1.3-1.3-1.6-2.7-1.9
	s-2.6-0.6-2.6-2.1s1.4-2.1,2.6-2.1s2.9,0.7,3,2.5h-0.5V42.3z"/>
<polygon class="st3" points="18.3,40 17.8,40 14.6,48.1 15.2,48.1 18,40.5 18,40.5 20.8,48.1 21.4,48.1 "/>
<path class="st3" d="M59.1,41.6h1.5c1.7,0,2.2,1.2,2.2,2.4c0.2,1.1-0.6,2.2-1.8,2.4c-0.1,0-0.3,0-0.4,0h-1.5V41.6z M59.4,46.2h1.3
	c0.9,0,1.9-0.5,1.9-2.2s-1.2-2.2-1.9-2.2h-1.3V46.2z"/>
<polygon class="st3" points="65.2,41.6 64.9,41.6 63,46.5 63.3,46.5 65,41.9 65,41.9 66.7,46.5 67,46.5 "/>
<path class="st3" d="M82,39.9c2.4,0,3.8,1.9,3.8,4.2s-1.4,4.2-3.8,4.2s-3.8-1.9-3.8-4.2S79.6,39.9,82,39.9z M82,46.8
	c1.5,0,2.1-1.3,2.1-2.7s-0.6-2.8-2.1-2.8s-2.1,1.3-2.1,2.8S80.5,46.8,82,46.8z"/>
<path class="st3" d="M87,40h2.4l1.8,5.5l0,0l1.7-5.5h2.4v8h-1.6v-5.6l0,0l-1.9,5.7h-1.3l-1.9-5.6l0,0v5.6H87v-8V40z"/>
<path class="st3" d="M96.8,40h5.8v1.5h-4.1v1.7h3.8v1.4h-3.8v2h4.2v1.5h-5.9v-8V40z"/>
<path class="st3" d="M103.9,40h1.7v8h-1.7V40z"/>
<polygon class="st3" points="118.8,40 117,40 114.1,48.1 115.8,48.1 117.9,42 117.9,42 119.9,48.1 121.7,48.1 "/>
<path class="st3" d="M42.4,46.5c0-1.1-0.1-2.2-1.5-2.3l0,0c1-0.2,1.8-1.1,1.7-2.1c0-1.6-1.1-2.1-2.5-2.1h-3.3v0.4H40
	c0.9-0.2,1.8,0.4,2,1.4c0,0.1,0,0.3,0,0.4c0.1,0.9-0.6,1.8-1.6,1.8c-0.1,0-0.3,0-0.4,0h-3.2v4.1h0.5v-3.7H40c2.7,0,1.4,2.5,2,3.7
	h0.5C42.3,47.6,42.3,47,42.4,46.5z"/>
<path class="st3" d="M77,46.2c0.1-0.8-0.3-1.6-1.1-1.9l0,0c0.8-0.3,1.3-1.1,1.2-2c0-1.2-1-2.2-2.2-2.2c0,0-0.1,0-0.1,0h-4.1v1.4h3.6
	c0.6,0,1.2,0.5,1.2,1.1c0,0.6-0.5,1.2-1.2,1.2h-3.6v4.4h1.7v-3.3h1.7c0.6-0.1,1.2,0.3,1.3,0.9c0,0.1,0,0.3,0,0.4
	c0,0.6,0.1,1.3,0.3,1.9h1.7C77.1,47.5,77,46.9,77,46.2z"/>
<path class="st3" d="M113.4,46.2c0.1-0.8-0.3-1.6-1.1-1.9l0,0c0.8-0.3,1.3-1.1,1.2-2c0-1.2-1-2.2-2.2-2.2c0,0-0.1,0-0.1,0H107v1.4
	h3.6c0.6,0,1.2,0.5,1.2,1.1c0,0.6-0.5,1.2-1.2,1.2l0,0H107v4.4h1.7v-3.3h1.7c0.6-0.1,1.2,0.3,1.3,0.9c0,0.1,0,0.2,0,0.3
	c0,0.6,0.1,1.3,0.3,1.9h1.7C113.5,47.4,113.4,46.8,113.4,46.2z"/>
</svg>
